<?xml version="1.0" standalone="no"?><!DOCTYPE svg PUBLIC "-//W3C//DTD SVG 1.1//EN" "http://www.w3.org/Graphics/SVG/1.1/DTD/svg11.dtd"><svg t="1711004155204" class="icon" viewBox="0 0 1024 1024" version="1.1" xmlns="http://www.w3.org/2000/svg" p-id="3572" xmlns:xlink="http://www.w3.org/1999/xlink" width="200" height="200"><path d="M124.605294 446.656128c0-88.276198-0.130145-176.552395 0.053518-264.829809 0.099737-48.099015 25.83566-65.217375 70.738211-47.314494 100.593778 40.109069 201.040383 80.593978 301.894451 120.040157 8.831634 3.454323 21.376664 3.360667 30.232625-0.104603 100.878395-39.449828 201.370003-79.898248 301.980809-120.034076 44.036537-17.567179 69.833275-0.762627 69.858818 45.805053 0.093656 177.2761 0.065681 354.5522 0.012163 531.828301-0.00973 30.750773-6.804043 41.125905-35.276665 52.555578-108.629945 43.609612-217.076226 87.706964-326.338653 129.672124-15.191723 5.834643-36.499058 5.779909-51.701728-0.063248C377.476335 852.487997 269.722134 808.608365 161.75143 765.297965c-29.999093-12.032964-37.093834-22.836238-37.120593-55.986791-0.074195-87.55006-0.027975-175.101336-0.025543-262.655046z m359.80788 399.809914c0.851418-6.038984 1.415786-8.16996 1.418219-10.302154 0.062032-169.957557-0.10217-339.915115 0.458549-509.870239 0.041355-12.940332-5.553676-17.154849-15.903265-21.230707-94.023267-37.035451-187.879899-74.495395-281.83262-111.709644-4.882272-1.935151-10.198767-2.77927-16.157474-4.354393-0.610588 4.793481-1.280775 7.608025-1.281992 10.421352-0.075411 169.235069 0.03284 338.468921-0.381921 507.701557-0.030408 12.613144 5.421098 17.505147 16.139229 21.629657 46.483754 17.891934 92.668296 36.564739 138.975686 54.920087 52.161494 20.678502 104.336367 41.321731 158.565589 62.794484z m60.201309-3.082132c9.611289-3.361883 16.325325-5.434477 22.835022-8.025219 89.282087-35.529658 178.363482-71.587195 267.961809-106.303142 16.760764-6.493884 22.474993-14.733174 22.391068-32.811204-0.738301-161.439732-0.430574-322.885546-0.430574-484.328926V185.341458c-10.040647 3.453107-16.770495 5.462452-23.272893 8.051978-89.267491 35.572229-178.264961 71.840188-267.947214 106.331117-17.564746 6.756607-21.958061 15.674599-21.893597 33.204072 0.605723 161.442165 0.356379 322.886762 0.356379 484.330143v26.125142z" p-id="3573"></path><path d="M224.531318 373.687204c56.088962 22.48594 109.087277 43.253233 161.482303 65.44969 5.46002 2.313423 8.890017 12.746938 10.462707 20.019262 1.783112 8.240506 0.412329 17.163363 0.412329 29.896922-16.178152-6.474423-29.831242-11.963634-43.50136-17.406625-34.23672-13.633629-68.045298-28.531005-102.887741-40.377874-20.256442-6.887969-30.387096-16.792389-26.106897-38.689634 0.943857-4.83362 0.138659-10.007806 0.138659-18.891741z m170.519493 293.707463c-55.379852-22.192809-108.863476-43.141332-161.708537-65.596864-4.997822-2.124895-7.089876-13.511998-8.49958-20.981364-1.423084-7.536262-0.312592-15.550535-0.312592-26.627478 36.080647 14.413284 69.321208 27.696616 102.570283 40.966568 12.039045 4.804428 24.102417 9.545608 36.143896 14.345171 36.396888 14.505724 36.395672 14.510589 31.80653 57.893967z m232.581758-10.360537c-0.93291-3.128352-1.615261-4.450482-1.689456-5.806668-2.090838-38.161755-2.093271-38.194595 33.634646-52.504493a47353.757284 47353.757284 0 0 1 116.812068-46.621198c6.547402-2.602905 13.259005-4.789832 20.278336-7.305163 3.822865 44.130193 3.833812 44.163033-34.436195 59.439898a47088.95545 47088.95545 0 0 1-114.751638 45.642067c-6.501182 2.57493-13.1617 4.754559-19.847761 7.155557z m170.39178-291.711496c0 11.957553 1.678509 21.679526-0.535177 30.41507-1.742974 6.87094-6.947568 15.700141-12.912356 18.217905-47.864267 20.198059-96.258846 39.144534-144.550039 58.322109-3.78516 1.502144-8.028868 1.851225-12.115673 2.750079-6.043849-40.220969-6.052363-40.236782 29.488242-54.456673a60120.939999 60120.939999 0 0 1 118.698566-47.394771c6.489019-2.581012 13.15197-4.726584 21.926437-7.853719z" p-id="3574"></path></svg>