<?xml version="1.0" standalone="no"?><!DOCTYPE svg PUBLIC "-//W3C//DTD SVG 1.1//EN" "http://www.w3.org/Graphics/SVG/1.1/DTD/svg11.dtd"><svg t="1711004093400" class="icon" viewBox="0 0 1024 1024" version="1.1" xmlns="http://www.w3.org/2000/svg" p-id="3433" xmlns:xlink="http://www.w3.org/1999/xlink" width="200" height="200"><path d="M844.8 50.688H179.2c-36.352 0-65.536 29.184-65.536 65.536v792.064c0 36.352 29.184 65.536 65.536 65.536h665.6c36.352 0 65.536-29.184 65.536-65.536V116.224c0-36.352-29.184-65.536-65.536-65.536z m-340.992 71.68v333.824L419.84 404.48c-5.12-3.072-10.752-4.608-16.384-4.608s-11.264 1.536-16.384 4.608L304.128 456.192V122.368h199.68z m-324.608-10.24h63.488v399.36c0 11.264 6.144 21.504 15.872 26.624 9.728 5.632 21.504 5.12 31.232-0.512l114.176-70.656 114.176 70.656c5.12 3.072 10.752 4.608 16.384 4.608 5.12 0 10.24-1.536 14.848-4.096 9.728-5.632 15.872-15.872 15.872-26.624v-399.36H844.8c2.048 0 4.096 2.048 4.096 4.096v639.488H175.104V116.224c0-2.56 2.048-4.096 4.096-4.096z m665.6 799.744H179.2c-2.048 0-4.096-2.048-4.096-4.096v-91.136h673.792v91.136c0 2.56-2.048 4.096-4.096 4.096z" fill="#231815" p-id="3434"></path></svg>